PathFileType	4	(X/Y/Z)	C:/Users/opensim2020/Desktop/walking_exp_matlab/subject06_walking18_straight_02.trc																																																																																																																																											
DataRate	CameraRate	NumFrames	NumMarkers	Units	OrigDataRate	OrigDataStartFrame	OrigNumFrames																																																																																																																																							
100	100	6	47	mm	100	2415	326																																																																																																																																							
Frame#	Time	LFHD			RFHD			LBHD			RBHD			C7			T10			CLAV			STRN			RBAK			LSHO			LUPA			LELB			LFRM			LWRA			LWRB			LFIN			RSHO			RUPA			RELB			RFRM			RWRA			RWRB			RFIN			LASI			RASI			LPSI			RPSI			LTHI			LKNE			LTIB			LANK			LHEE			LTOE			RTHI			RKNE			RTIB			RANK			RHEE			RTOE			*39			*40			*41			*42			*43			*44			*45			*46		
		X1	Y1	Z1	X2	Y2	Z2	X3	Y3	Z3	X4	Y4	Z4	X5	Y5	Z5	X6	Y6	Z6	X7	Y7	Z7	X8	Y8	Z8	X9	Y9	Z9	X10	Y10	Z10	X11	Y11	Z11	X12	Y12	Z12	X13	Y13	Z13	X14	Y14	Z14	X15	Y15	Z15	X16	Y16	Z16	X17	Y17	Z17	X18	Y18	Z18	X19	Y19	Z19	X20	Y20	Z20	X21	Y21	Z21	X22	Y22	Z22	X23	Y23	Z23	X24	Y24	Z24	X25	Y25	Z25	X26	Y26	Z26	X27	Y27	Z27	X28	Y28	Z28	X29	Y29	Z29	X30	Y30	Z30	X31	Y31	Z31	X32	Y32	Z32	X33	Y33	Z33	X34	Y34	Z34	X35	Y35	Z35	X36	Y36	Z36	X37	Y37	Z37	X38	Y38	Z38	X39	Y39	Z39	X40	Y40	Z40	X41	Y41	Z41	X42	Y42	Z42	X43	Y43	Z43	X44	Y44	Z44	X45	Y45	Z45	X46	Y46	Z46	X47	Y47	Z47
																																																																																																																																														
164	1.63	-264.39169	1661.39795	910.78168	-263.87759	1657.59546	1043.69214	-397.61469	1606.60144	914.58911	-395.23367	1607.74414	1044.02515	-399.15836	1452.47144	974.17688	-434.98392	1123.69995	993.61877	-289.23041	1376.58276	985.92755	-249.84583	1200.5769	990.84814	-476.15744	1284.89038	1056.78418	-330.77432	1400.53125	819.70337	-310.23456	1197.60046	751.29401	-296.1228	1085.62671	739.10229	-219.17445	955.30902	727.61572	-120.48763	879.56537	779.54382	-171.33342	846.64484	742.64618	-99.18759	792.28168	747.77747	-344.97787	1415.52832	1142.26147	-390.39005	1221.40137	1235.22449	-384.92859	1099.74316	1250.51831	-365.60123	981.73352	1270.81812	-295.94574	846.18591	1243.64404	-352.23077	845.09351	1282.77441	-310.91779	771.27417	1286.71069	-252.05484	961.03424	901.48199	-268.02557	973.8324	1122.07263	-411.63327	989.48694	918.73932	-418.23959	992.09332	1086.96179	-333.34882	647.31177	853.63086	-352.95181	483.85782	877.32489	-414.73178	233.24153	894.20477	-437.30261	65.08753	947.69946	-477.79596	53.3756	993.0097	-292.79852	34.60699	951.08417	-282.61365	657.401	1183.86548	-205.82846	528.9707	1164.71045	-230.97685	268.11795	1167.54663	-235.7639	80.74843	1130.98047	-272.73285	53.92757	1085.2395	-86.29145	43.45986	1131.50171	-364.40451	1702.44189	968.8999	NaN	NaN	NaN	NaN	NaN	NaN	NaN	NaN	NaN	NaN	NaN	NaN	NaN	NaN	NaN	NaN	NaN	NaN	NaN	NaN	NaN
165	1.64	-258.86951	1660.77551	910.69238	-258.60458	1657.06067	1043.6261	-391.99136	1606.12195	914.38159	-389.42627	1607.19214	1043.3374	-393.87338	1451.94763	973.93658	-429.67545	1123.18579	993.49164	-283.82468	1376.16895	985.7771	-244.51605	1200.08887	990.72571	-470.89508	1284.31506	1056.38538	-325.33115	1400.09338	819.49945	-304.41156	1197.25012	751.03931	-289.57245	1085.30225	738.73651	-211.57965	955.71057	727.41913	-112.12312	881.14978	779.29834	-162.707	847.45532	742.45526	-89.79381	793.95996	747.72125	-339.92361	1415.06091	1141.99744	-385.57806	1221.02148	1234.98254	-380.39737	1099.36426	1250.31519	-361.22824	981.35126	1270.68091	-291.44772	845.74939	1243.74878	-347.90546	844.72522	1282.71094	-306.77295	770.85455	1286.73804	-246.92815	960.45697	901.27692	-262.58511	973.31219	1121.86914	-406.53912	989.04431	918.75507	-412.89447	991.66174	1086.98096	-328.9437	646.79144	853.67108	-348.96994	483.37253	877.53296	-412.95587	233.2093	894.46967	-436.93994	65.31252	947.9278	-477.54626	53.78764	993.27795	-292.65198	34.56266	951.1358	-248.49648	645.76239	1187.75537	-200.57835	528.43329	1164.05432	-218.7766	267.10764	1166.93542	-217.80405	79.65399	1130.48315	-254.31866	52.43622	1084.86499	-67.36892	44.6715	1129.79224	-358.94968	1701.9574	968.67853	NaN	NaN	NaN	NaN	NaN	NaN	NaN	NaN	NaN	NaN	NaN	NaN	NaN	NaN	NaN	NaN	NaN	NaN	NaN	NaN	NaN
166	1.65	-253.25479	1660.31592	910.91113	-253.23357	1656.48694	1043.604	-386.5097	1605.64282	914.0929	-384.14984	1606.70544	1043.14526	-388.62915	1451.38416	973.71771	-424.31772	1122.58374	993.44159	-278.52841	1375.66919	985.67102	-239.07564	1199.61792	990.62769	-465.51291	1283.60034	1055.99878	-319.97144	1399.59009	819.35449	-298.50601	1196.87964	750.7934	-282.9834	1084.96399	738.89905	-204.12303	956.14655	726.90051	-103.97787	882.565	779.15216	-154.23482	848.37866	742.57269	-80.86802	795.4939	747.63361	-334.86124	1414.62598	1141.86401	-380.93976	1220.60449	1234.78406	-375.86005	1098.95056	1250.17041	-356.80215	980.92596	1270.60535	-287.02063	845.26129	1243.93884	-343.5051	844.21698	1282.64807	-302.57309	770.38031	1286.78784	-241.82979	959.82471	901.0061	-256.98648	972.71393	1121.60486	-401.44452	988.58179	918.82263	-407.30005	991.12878	1087.03003	-324.50705	646.18781	853.76306	-345.31805	482.97787	877.87	-410.87634	233.19527	894.91095	-436.55966	65.53095	948.11682	-477.98538	54.70509	993.87012	-292.36215	34.54858	951.32648	-243.37265	644.99249	1187.84497	-195.48956	527.71667	1163.55347	-207.04568	266.28232	1166.30615	-200.34975	78.88877	1129.901	-236.22971	51.07299	1084.33447	-48.99731	46.5619	1128.61743	-353.41028	1701.45337	968.54706	NaN	NaN	NaN	NaN	NaN	NaN	NaN	NaN	NaN	NaN	NaN	NaN	NaN	NaN	NaN	NaN	NaN	NaN	NaN	NaN	NaN
167	1.66	-247.67632	1659.74219	910.85699	-247.8526	1655.8894	1043.63928	-381.01016	1605.19092	914.01306	-378.65225	1606.18555	1042.90637	-383.24332	1450.80627	973.53827	-418.95956	1121.96912	993.42407	-273.1987	1375.1405	985.65002	-233.63333	1199.0603	990.54785	-460.22897	1282.99719	1055.69336	-314.55957	1399.08594	819.28351	-292.50778	1196.48608	750.65314	-276.8728	1084.61206	738.487	-196.74397	956.43896	726.73169	-96.04102	883.62042	778.99066	-146.10123	848.96765	742.41284	-72.3833	796.85577	747.5224	-329.73294	1414.08435	1141.79089	-376.10025	1220.10901	1234.70923	-371.25644	1098.46509	1250.06201	-352.32706	980.43341	1270.56946	-282.43637	844.75714	1244.12427	-339.17709	843.69806	1282.63147	-298.27237	769.86151	1286.91272	-236.64156	959.17877	900.664	-251.26794	972.06366	1121.2771	-396.23199	988.00549	918.974	-401.73181	990.56909	1087.24597	-320.18973	645.69794	853.98938	-341.44958	482.4924	878.12939	-408.8277	233.20085	895.27069	-436.18643	65.71557	948.25916	-477.01904	54.55798	993.65808	-292.24777	34.493	951.36676	-238.12901	644.17053	1187.87097	-190.35124	526.75012	1163.13391	-195.57813	265.4603	1165.64502	-183.55095	78.45071	1129.30493	-218.53108	49.93644	1083.64917	-31.14001	49.07674	1127.89307	-347.88046	1700.95435	968.42651	NaN	NaN	NaN	NaN	NaN	NaN	NaN	NaN	NaN	NaN	NaN	NaN	NaN	NaN	NaN	NaN	NaN	NaN	NaN	NaN	NaN
168	1.67	-242.17772	1659.14197	910.73016	-242.4967	1655.26099	1043.74719	-375.45313	1604.69141	913.93988	-373.41385	1605.62915	1042.90442	-377.79929	1450.23047	973.55243	-413.61374	1121.36084	993.45825	-267.71008	1374.63074	985.67957	-228.1243	1198.52686	990.51367	-454.80136	1282.25122	1055.58643	-309.08801	1398.54871	819.31146	-286.48785	1196.02625	750.56989	-270.2583	1084.42725	738.07489	-189.4646	956.35516	726.771	-88.42951	884.41864	778.93408	-138.04982	849.53387	742.28925	-64.0355	797.74048	747.47046	-324.59869	1413.52075	1141.80322	-371.24405	1219.58362	1234.64966	-366.61407	1097.94067	1250.05298	-347.86362	979.89795	1270.58569	-277.97366	844.23676	1244.34607	-334.81244	843.13202	1282.64075	-293.94366	769.27881	1286.93152	-231.52106	958.48163	900.35925	-245.47873	971.39063	1120.95044	-391.04984	987.34943	919.17731	-396.0733	989.99414	1087.46045	-315.82465	645.14124	854.1687	-337.56174	481.9935	878.32776	-406.86066	233.19389	895.54883	-435.84381	65.95034	948.35461	-476.83923	54.95512	993.75256	-292.26981	34.49836	951.25043	-232.81461	643.32574	1187.89832	-185.47981	525.75574	1162.672	-184.75275	264.72516	1164.95105	-167.05798	78.11148	1128.45435	-201.20567	48.94864	1082.73499	-13.77165	51.97859	1127.39832	-342.43729	1700.40442	968.36871	NaN	NaN	NaN	NaN	NaN	NaN	NaN	NaN	NaN	NaN	NaN	NaN	NaN	NaN	NaN	NaN	NaN	NaN	NaN	NaN	NaN
169	1.68	-236.62384	1658.49023	910.97095	-237.088	1654.61694	1043.90015	-369.9397	1604.11536	913.91644	-368.03787	1605.03296	1042.85229	-372.4584	1449.56262	973.56012	-408.16507	1120.7218	993.57886	-262.25204	1374.04053	985.75238	-222.71266	1197.93152	990.45624	-449.55637	1281.64734	1055.5293	-303.61191	1397.98718	819.38318	-280.45859	1195.56726	750.56812	-263.42642	1084.11841	738.15765	-182.39655	956.62274	726.81384	-80.96738	884.98383	778.82397	-130.42007	849.85858	741.86548	-56.1918	798.53943	747.33716	-319.28818	1412.85925	1141.88318	-366.38486	1219.02979	1234.69507	-361.95761	1097.37927	1250.0719	-343.36636	979.32965	1270.6748	-273.33966	843.59924	1244.61121	-330.35889	842.52563	1282.72815	-289.64117	768.63916	1287.11816	-226.38762	957.70599	900.01263	-239.54207	970.70941	1120.66309	-385.85013	986.62207	919.44739	-390.25101	989.39142	1087.79175	-311.55878	644.64374	854.37585	-333.76126	481.56003	878.53564	-404.76849	233.174	895.84991	-435.52545	66.20433	948.42743	-476.62512	55.40298	993.79382	-292.12778	34.50647	951.30609	-227.3528	642.47278	1187.9646	-180.45941	524.71722	1162.07703	-174.22711	264.02963	1164.34363	-151.43376	77.92472	1127.71509	-184.45457	48.17241	1081.72559	3.04727	55.04165	1127.10217	-336.90695	1699.78418	968.45612	NaN	NaN	NaN	NaN	NaN	NaN	NaN	NaN	NaN	NaN	NaN	NaN	NaN	NaN	NaN	NaN	NaN	NaN	NaN	NaN	NaN
